<svg width="589px" height="92px" viewBox="0 0 589 92" version="1.1" xmlns="http://www.w3.org/2000/svg" xmlns:xlink="http://www.w3.org/1999/xlink">
<path fill="#F8991D" d="M337.793,91.063 L321.342,91.063 L321.342,49.935 L292.552,0.58 L309.004,0.58 L329.568,33.483 L350.132,0.58 L366.584,0.58 L337.793,49.935 L337.793,91.063 L337.793,91.063 Z M259.642,91.484 L259.423,91.484 C248.237,91.484 240.058,87.572 235.509,82.464 C231.852,78.441 230.017,74.649 229.271,72.875 C229.259,72.858 229.241,72.852 229.231,72.83 C227.861,69.945 227.694,66.301 227.694,66.301 L244.249,66.301 L244.249,66.32 L244.266,66.313 C244.277,66.343 244.31,66.414 244.359,66.532 C244.465,66.766 244.651,67.174 244.924,67.674 C245.468,68.686 246.362,70.087 247.594,71.434 C250.172,74.11 253.442,76.526 259.642,76.588 C265.65,76.585 269.867,74.861 272.4,72.804 C274.939,70.698 275.888,68.469 275.911,66.217 C275.851,63.044 274.904,61.027 272.908,59.3 C270.834,57.603 266.137,55.637 258.212,54.358 C247.05,52.55 239.365,48.187 234.942,42.309 C230.519,36.463 230.945,30.174 230.96,26.541 C230.907,19.166 233.099,11.945 238.807,7.068 C244.489,2.15 252.304,0.348 261.163,0.361 C272.059,0.288 279.94,5.247 284.148,10.421 C288.477,15.628 290.004,20.422 290.224,21.018 L290.21,21.025 C291.04,23.991 291.123,25.356 291.123,25.356 L274.567,25.356 C274.554,25.316 274.567,25.356 274.567,25.356 C274.567,25.356 274.296,25.208 274.043,24.694 C273.537,23.668 272.703,22.253 271.586,20.924 C269.207,18.236 266.453,16.059 261.164,15.987 C255.315,15.998 251.644,17.599 249.527,19.434 C247.424,21.315 246.438,23.456 246.384,26.541 C246.394,28.745 246.689,30.694 248.007,32.445 C249.335,34.165 252.324,36.752 260.898,38.217 C270.106,39.784 277.303,42.015 283.02,46.425 C288.822,50.801 291.91,57.804 292.24,64.638 C292.27,65.134 292.288,65.666 292.288,66.216 C292.315,73.741 288.612,80.79 282.708,85.519 C276.8,90.29 268.787,91.488 259.642,91.484 L259.642,91.484 Z M173.278,66.47 L173.278,91.064 L156.826,91.064 L156.826,0.58 L187.236,0.58 C205.698,0.615 218.516,16.356 218.551,34.808 C218.516,53.249 205.698,66.433 187.236,66.47 L173.278,66.47 L173.278,66.47 Z M187.237,17.032 L173.279,17.032 L173.279,49.935 L187.237,49.948 C196.581,49.943 202,44.141 202.006,34.808 C202,25.464 196.581,17.038 187.237,17.032 L187.237,17.032 Z M59.287,45.121 C59.287,19.775 79.29,0.383 103.867,0.348 C128.429,0.383 148.308,20.139 148.308,45.486 C148.301,70.82 128.429,91.171 103.867,91.214 C79.291,91.17 59.287,70.455 59.287,45.121 L59.287,45.121 Z M103.867,17.189 C88.22,17.189 75.51,29.106 75.482,45.121 C75.51,61.129 88.22,74.5 103.867,74.503 C119.5,74.5 132.088,61.128 132.117,45.121 C132.087,29.113 119.5,17.189 103.867,17.189 L103.867,17.189 Z M21.143,91.063 L21.143,17.032 L0.537,17.032 L0.537,0.58 L58.117,0.58 L58.117,17.032 L37.552,17.032 L37.552,91.063 L21.143,91.063 Z M21.143,91.063"></path>
<path fill="#FFFFFF" d="M567.712,91.11 L548.003,91.11 C536.293,91.11 526.986,82.146 526.986,70.45 L526.986,62.273 L526.986,29.371 L526.986,21.194 C526.986,9.498 536.293,0.534 548.003,0.534 L567.712,0.534 C579.422,0.534 588.68,10.05 588.68,21.745 L588.68,29.37 L588.68,58.16 L588.68,69.898 C588.68,81.595 579.422,91.11 567.712,91.11 Z M580.454,23.201 L580.454,21.745 C580.454,14.727 574.739,9.018 567.712,9.018 L548.003,9.018 C540.977,9.018 535.247,14.726 535.247,21.745 L535.247,23.201 L535.247,57.904 L535.247,62.275 L535.247,69.899 C535.247,76.917 540.976,82.626 548.003,82.626 L567.712,82.626 C574.738,82.626 580.454,76.918 580.454,69.899 L580.454,58.162 L580.454,57.904 Z M580.454,23.201"></path>
<path fill="#FFFFFF" d="M514.647,66.3 C514.647,66.386 514.71,65.656 514.647,66.386 L514.674,91.063 L506.391,91.063 L506.391,66.386 C506.392,66.316 506.391,66.247 506.391,66.177 C506.391,56.623 502.578,49.791 493.01,49.791 L491.837,49.791 C491.704,49.794 491.57,49.794 491.436,49.794 L491.436,49.791 L465.318,49.791 L465.318,66.386 L465.318,91.293 L457.07,91.293 L457.07,0.625 L491.488,0.625 C504.648,0.654 515.344,11.825 515.344,24.973 C515.344,32.661 511.688,40.453 506.022,44.824 C513.693,49.306 514.647,56.803 514.647,66.3 Z M506.851,24.973 C506.851,16.485 499.936,9.109 491.436,9.109 L465.318,9.109 L465.318,41.307 L491.759,41.307 C500.11,41.135 506.851,33.355 506.851,24.973 Z M506.851,24.973"></path>
<path fill="#FFFFFF" d="M434.859,45.688 C432.771,47.012 431.976,47.405 429.919,48.209 L429.778,48.263 C428.272,48.841 426.698,49.263 425.068,49.517 C425.017,49.525 424.966,49.534 424.915,49.542 C424.368,49.623 423.817,49.687 423.259,49.729 L423.092,49.793 L422.095,49.793 C421.919,49.797 421.748,49.821 421.571,49.822 L395.407,49.822 L395.407,66.383 L395.407,66.388 L395.407,91.295 L387.155,91.295 L387.155,26.297 L387.155,0.625 L421.572,0.625 C434.732,0.654 445.428,11.825 445.428,24.973 C445.428,25.229 445.413,25.486 445.406,25.742 L445.415,25.742 C445.406,25.884 445.398,26.026 445.394,26.169 C445.388,26.298 445.383,26.427 445.374,26.556 C445.33,27.238 445.252,27.917 445.154,28.594 C444.814,31.197 444.07,33.678 442.965,35.977 C442.666,36.624 442.34,37.254 441.993,37.87 C440.794,39.999 439.317,41.92 437.614,43.523 C437.554,43.58 437.494,43.638 437.433,43.694 C437.003,44.09 436.564,44.472 436.106,44.825 Z M421.518,9.109 L395.407,9.109 L395.407,25.742 L395.407,41.061 L395.407,41.307 L421.842,41.307 C422.356,41.296 422.863,41.256 423.363,41.189 C423.545,41.165 423.719,41.121 423.899,41.089 C424.213,41.034 424.53,40.985 424.838,40.909 C425.064,40.853 425.282,40.776 425.504,40.71 C425.756,40.634 426.011,40.567 426.257,40.478 C426.511,40.386 426.756,40.273 427.005,40.167 C427.208,40.081 427.415,40.002 427.613,39.907 C427.891,39.773 428.158,39.62 428.427,39.469 C428.584,39.382 428.744,39.302 428.898,39.209 C429.196,39.028 429.484,38.829 429.77,38.627 C429.881,38.549 429.997,38.477 430.106,38.396 C430.421,38.162 430.724,37.912 431.023,37.654 C431.092,37.594 431.164,37.539 431.232,37.479 C431.558,37.188 431.871,36.882 432.174,36.565 C432.206,36.532 432.239,36.501 432.27,36.468 C432.599,36.118 432.915,35.755 433.214,35.377 L433.217,35.373 C435.361,32.665 436.713,29.276 436.886,25.741 L436.894,25.741 C436.907,25.485 436.932,25.23 436.932,24.972 C436.932,16.485 430.017,9.109 421.518,9.109 Z M421.518,9.109"></path>
</svg>